<svg fill="none" height="80" viewBox="0 0 80 80" width="80" xmlns="http://www.w3.org/2000/svg" xmlns:xlink="http://www.w3.org/1999/xlink"><radialGradient id="a" cx="0" cy="0" gradientTransform="matrix(35.48403249 35.48403249 -48.29397894 48.29397894 36.524 37.9604)" gradientUnits="userSpaceOnUse" r="1"><stop offset="0" stop-color="#83b9f9"/><stop offset="1" stop-color="#0078d4"/></radialGradient><clipPath id="b"><rect height="80" rx="12" width="80"/></clipPath><g clip-path="url(#b)"><rect fill="#fff" height="80" rx="12" width="80"/><path clip-rule="evenodd" d="m0 12v56c0 6.6266 5.37329 12 12 12h56c6.6267 0 12-5.3734 12-12v-56c0-6.62668-5.3733-12-12-12h-56c-6.62671 0-12 5.37332-12 12zm48-12v16c0 17.6711 14.3289 32 32 32h-16c-17.6711 0-31.9955 14.32-32 31.9911v-15.9911c0-17.6711-14.3289-32-32-32h16c17.6711 0 32-14.3289 32-32z" fill="url(#a)" fill-rule="evenodd"/></g></svg>
